<svg xmlns="http://www.w3.org/2000/svg" version="1.1" xmlns:xlink="http://www.w3.org/1999/xlink" xmlns:svgjs="http://svgjs.dev/svgjs" width="100%" height="100%" viewBox="0 0 1000 600"><rect width="1000" height="600" x="0" y="0" fill="#718096"/><g><rect width="333.3333333333333" height="333.3333333333333" y="249.870525943925" fill="#0d6efd" transform="matrix(0.5490924781122658,0,0,0.5490924781122658,0,71.28253016594593)" x="227.6482391357422"/><path d="M409.0916955978997 491.5371788217959L339.0321739094541 491.5371788217959L339.0321739094541 481.68598864385393L358.73455426533815 476.95384592997846L358.73455426533815 356.1205162549195L339.0321739094541 351.3883735410441L339.0321739094541 341.53718336310203L449.59764675251915 341.53718336310203L449.59764675251915 385.46575346171954L439.74645657457717 385.46575346171954L430.728599704739 355.8824210240327L385.10360108605295 354.18599250396414L385.10360108605295 409.0371813195143L431.38336158967775 405.1681338176035L431.38336158967775 424.24551419240964L385.10360108605295 420.6145619213857L385.10360108605295 476.95384592997846L409.0916955978997 481.68598864385393L409.0916955978997 491.5371788217959Z " fill="#718096" transform="matrix(0.5490924781122658,0,0,0.5490924781122658,0,71.28253016594593)"/><path d="M688.8982424804431 450.6280939762877L644.3149117239568 450.6280939762877L644.3149117239568 444.3591549446832L656.8527897871659 441.3477914823717L656.8527897871659 364.4538565327821L644.3149117239568 361.4424930704705L644.3149117239568 355.1735540388661L714.6747561421159 355.1735540388661L714.6747561421159 383.1280978776824L708.4058171105114 383.1280978776824L702.6671810785592 364.30234139002425L673.6330918475935 363.22279599787487L673.6330918475935 398.1280970107058L703.0838477211432 395.66597594089137L703.0838477211432 407.80612675436106L673.6330918475935 405.4955208273044L673.6330918475935 441.3477914823717L688.8982424804431 444.3591549446832L688.8982424804431 450.6280939762877ZM721.0762709236335 433.7152161659469L721.0762709236335 433.7152161659469Q721.0762709236335 410.1356720742624 762.9512685033238 410.1356720742624L762.9512685033238 410.1356720742624L762.9512685033238 405.3629450773913Q762.9512685033238 393.4879457637478 759.5989959698071 390.287188372989Q756.2656628291353 387.08643098223024 749.1823299052077 387.08643098223024L749.1823299052077 387.08643098223024L733.216421737103 400.7227938304333Q729.9399067749655 398.6773394032029 727.7050584192878 394.927339619947Q725.4512706707653 391.17733983669115 725.3186949208521 386.95385523231715L725.3186949208521 386.95385523231715Q731.0383915599596 383.80991602009254 737.8565729840611 382.10537066406715Q744.6747544081626 380.4008253080418 751.3603600823511 380.4008253080418L751.3603600823511 380.4008253080418Q779.3149039211675 380.4008253080418 779.3149039211675 403.8477936498132L779.3149039211675 403.8477936498132L779.3149039211675 441.7644581249557L789.9399033070591 441.7644581249557L789.9399033070591 446.2720336220006Q786.8149034876791 449.2644576914674 782.9891461330443 450.9690030474928Q779.1823281712544 452.67354840351817 775.4891465665327 452.67354840351817L775.4891465665327 452.67354840351817Q767.439904607524 452.67354840351817 763.6330866457339 445.7227912295035L763.6330866457339 445.7227912295035Q754.4853599017309 452.67354840351817 743.0459666235162 452.67354840351817L743.0459666235162 452.67354840351817Q734.0308156294263 452.67354840351817 727.5535432765298 447.9008214066471Q721.0762709236335 443.128094409776 721.0762709236335 433.7152161659469ZM738.2732396266451 433.1659737734499L738.2732396266451 433.1659737734499Q738.2732396266451 438.2227916629918 741.6065727673171 440.66597333996157Q744.9399059079889 443.128094409776 750.1292995474438 443.128094409776L750.1292995474438 443.128094409776Q757.6292991139557 443.128094409776 762.9512685033238 438.487943162818L762.9512685033238 438.487943162818L762.9512685033238 417.08642924827706Q750.678541939941 417.08642924827706 744.4664210868706 421.51824717394305Q738.2732396266451 425.95006509960905 738.2732396266451 433.1659737734499ZM833.1785371715697 450.6280939762877L796.4929332313344 450.6280939762877L796.4929332313344 444.7568821944225L808.0838416523071 442.02960962478187L808.0838416523071 393.4879457637478L796.4929332313344 393.4879457637478L796.4929332313344 387.63567337472733L818.3111137884595 382.44627973527224L824.3149013202377 382.44627973527224L824.3149013202377 388.58264301696363Q834.8073249562161 380.4008253080418 845.8489909846918 380.4008253080418L845.8489909846918 380.4008253080418Q859.9020204754787 380.4008253080418 865.7732322573439 390.7606731941072L865.7732322573439 390.7606731941072Q877.761867928056 380.4008253080418 890.1671702413518 380.4008253080418L890.1671702413518 380.4008253080418Q900.6785332701751 380.4008253080418 906.7391389804874 386.4046128398201Q912.8186840836446 392.4084003715984 912.8186840836446 401.80233922258276L912.8186840836446 401.80233922258276L912.8186840836446 442.02960962478187L924.4095925046173 444.7568821944225L924.4095925046173 450.6280939762877L887.723988564382 450.6280939762877L887.723988564382 444.7568821944225L896.587624415714 442.02960962478187L896.587624415714 403.582642149987Q896.587624415714 397.18112736846945 893.5194427748683 393.7720366564187Q890.4512611340227 390.36294594436794 884.8641402448283 390.36294594436794L884.8641402448283 390.36294594436794Q876.8148982858196 390.36294594436794 868.0838381844006 396.6318849759724L868.0838381844006 396.6318849759724Q868.6330805768977 399.9083999381101 868.6330805768977 401.80233922258276L868.6330805768977 401.80233922258276L868.6330805768977 442.02960962478187L877.4967164282297 444.7568821944225L877.4967164282297 450.6280939762877L843.405809307722 450.6280939762877L843.405809307722 444.7568821944225L852.269445159054 442.02960962478187L852.269445159054 403.582642149987Q852.269445159054 397.18112736846945 849.2012635182083 393.7720366564187Q846.1330818773625 390.36294594436794 840.5459609881683 390.36294594436794L840.5459609881683 390.36294594436794Q832.8944462788987 390.36294594436794 824.3149013202377 396.0826425834753L824.3149013202377 396.0826425834753L824.3149013202377 442.02960962478187L833.1785371715697 444.7568821944225L833.1785371715697 450.6280939762877ZM961.0762570520079 361.7265839631415L961.0762570520079 361.7265839631415Q961.0762570520079 365.9500685675155 958.1595905539199 368.8856744584481Q955.2239846629874 371.80234095653594 951.0005000586133 371.80234095653594L951.0005000586133 371.80234095653594Q946.7580760613945 371.80234095653594 943.8414095633067 368.8856744584481Q940.9058036723742 365.9500685675155 940.9058036723742 361.7265839631415L940.9058036723742 361.7265839631415Q940.9058036723742 357.4841599659227 943.8414095633067 354.5674934678348Q946.7580760613945 351.6318875769022 951.0005000586133 351.6318875769022L951.0005000586133 351.6318875769022Q955.2239846629874 351.6318875769022 958.1595905539199 354.4917358964559Q961.0762570520079 357.3515842160096 961.0762570520079 361.7265839631415ZM970.3565595459239 450.6280939762877L930.9436830360479 450.6280939762877L930.9436830360479 444.7568821944225L942.5345914570206 442.02960962478187L942.5345914570206 393.4879457637478L930.9436830360479 393.4879457637478L930.9436830360479 387.63567337472733L952.761863593173 382.44627973527224L958.7656511249512 382.44627973527224L958.7656511249512 442.02960962478187L970.3565595459239 444.7568821944225L970.3565595459239 450.6280939762877ZM1015.6217084448202 450.6280939762877L976.0762561850312 450.6280939762877L976.0762561850312 444.7568821944225L987.6671646060039 442.02960962478187L987.6671646060039 352.5788572191385L976.0762561850312 352.5788572191385L976.0762561850312 346.72658483011804L997.8944367421562 341.53719119066295L1004.0308000238475 341.53719119066295L1004.0308000238475 442.02960962478187L1015.6217084448202 444.7568821944225L1015.6217084448202 450.6280939762877ZM1026.6823138661407 390.8932489440203L1017.4020113722246 388.31749151713746L1017.4020113722246 382.44627973527224L1054.6368577049566 382.44627973527224L1054.6368577049566 388.31749151713746L1044.1254946761337 390.36294594436794L1063.5004935562888 433.5826404160338L1079.8641289741327 391.04476408677806L1068.9550386955702 388.31749151713746L1068.9550386955702 382.44627973527224L1099.0876127115298 382.44627973527224L1099.0876127115298 388.31749151713746L1088.3110981828804 391.17733983669115L1049.7126155653277 491.4046067709839Q1043.5762522836367 491.4046067709839 1040.5080706427907 489.6243038435796Q1037.4398890019452 487.86294030902 1035.8111012172985 485.26824348929244L1035.8111012172985 485.26824348929244L1055.318675847367 454.30233618816465L1026.6823138661407 390.8932489440203ZM1143.40579196819 450.6280939762877L1101.5307943884995 450.6280939762877L1101.5307943884995 444.3591549446832L1114.0876118445535 441.3477914823717L1114.0876118445535 364.4538565327821L1101.5307943884995 361.4424930704705L1101.5307943884995 355.1735540388661L1140.1292770060522 355.1735540388661Q1147.4967008226508 355.1735540388661 1153.6330641043423 356.3288570023944Q1159.7694273860338 357.4841599659227 1165.56488159652 360.2871901069422Q1171.3603358070063 363.0902202479617 1174.693668947678 368.60158356577716Q1178.0459414811949 374.1318862764373 1178.0459414811949 381.8970373427752L1178.0459414811949 381.8970373427752Q1178.0459414811949 400.0409756880232 1159.2201849935368 406.44249046954076L1159.2201849935368 406.44249046954076L1178.178517231108 441.4993066251295L1190.16715290182 444.4917306945963L1190.16715290182 450.6280939762877L1165.3565482752279 450.6280939762877L1142.856549575693 408.4879448967712L1130.8489745121365 408.4879448967712L1130.8489745121365 441.3477914823717L1143.40579196819 444.3591549446832L1143.40579196819 450.6280939762877ZM1130.8489745121365 363.7720383903719L1130.8489745121365 400.30612718784937L1138.765640721232 400.30612718784937Q1148.727761357558 400.30612718784937 1154.7883670678707 395.4008244410652Q1160.848972778183 390.495521694281 1160.848972778183 381.63188584294903L1160.848972778183 381.63188584294903Q1160.848972778183 372.90082574153007 1154.8641246392494 368.336432065951Q1148.8603371074714 363.7720383903719 1138.765640721232 363.7720383903719L1138.765640721232 363.7720383903719L1130.8489745121365 363.7720383903719ZM1194.2580617562808 415.72279296345675L1194.2580617562808 415.72279296345675Q1194.2580617562808 400.7227938304333 1202.8565461077865 390.5523398728152Q1211.4550304592922 380.4008253080418 1226.587605342229 380.4008253080418L1226.587605342229 380.4008253080418Q1234.4853321584797 380.4008253080418 1240.4323015117238 383.3364311989744Q1246.360331472123 386.27203708990703 1249.8262403627082 391.4424913365173Q1253.3110886461382 396.6318849759724 1254.9398764307844 403.03339975749Q1256.5876036082755 409.4538539318523 1256.5876036082755 416.95385349836397L1256.5876036082755 416.95385349836397L1210.4891214242111 416.95385349836397Q1211.4550304592922 428.1280952767526 1217.9891209907228 435.96900391446934Q1224.5421509149983 443.8099125521861 1235.8489684433002 443.8099125521861L1235.8489684433002 443.8099125521861Q1243.0838165099858 443.8099125521861 1251.5307857187336 440.66597333996157L1251.5307857187336 440.66597333996157L1253.8603310386347 447.0864275143239Q1241.1709378326682 452.67354840351817 1229.7126051616087 452.67354840351817L1229.7126051616087 452.67354840351817Q1213.2163939938519 452.67354840351817 1203.7466975714888 441.8970338748688Q1194.2580617562808 431.1205193462194 1194.2580617562808 415.72279296345675ZM1210.4891214242111 410.2682478241755L1210.4891214242111 410.2682478241755L1239.674725797935 408.090217647032Q1239.258059155351 399.9083999381101 1235.8489684433002 393.9046124063318Q1232.4398777312495 387.9008248745535 1226.170938699645 387.9008248745535L1226.170938699645 387.9008248745535Q1219.3527572755434 387.9008248745535 1215.0535150997903 394.30233965607107Q1210.773212316882 400.7227938304333 1210.4891214242111 410.2682478241755ZM1267.4966938868379 416.80233835560614L1267.4966938868379 416.80233835560614Q1267.4966938868379 400.59021808052023 1277.3830569517854 390.495521694281Q1287.2694200167325 380.4008253080418 1301.3035101146747 380.4008253080418L1301.3035101146747 380.4008253080418Q1313.4436609281447 380.4008253080418 1323.1216906717996 386.1205219471492L1323.1216906717996 386.1205219471492Q1322.989114921887 390.7606731941072 1320.3944181021593 394.6432487272761Q1317.8186606752765 398.5447636532898 1314.5421457131388 400.30612718784937L1314.5421457131388 400.30612718784937L1301.4550252574327 387.9008248745535L1300.6216919722647 387.9008248745535Q1293.67093479825 389.1318854094607 1288.8982078013792 396.6887031545066Q1284.1254808045078 404.2644602923972 1284.1254808045078 416.53718685577996L1284.1254808045078 416.53718685577996Q1284.1254808045078 430.59021634656705 1290.6027531574045 437.1243068779977Q1297.0800255103009 443.6773368022731 1307.7239642890372 443.6773368022731L1307.7239642890372 443.6773368022731Q1316.038357747872 443.6773368022731 1322.989114921887 439.8515794476383L1322.989114921887 439.8515794476383L1325.3186602417882 446.5371851218268Q1313.8603275707287 452.67354840351817 1301.9853282570853 452.67354840351817L1301.9853282570853 452.67354840351817Q1287.2694200167325 452.67354840351817 1277.3830569517854 443.2038519811549Q1267.4966938868379 433.7152161659469 1267.4966938868379 416.80233835560614ZM1363.5004762167569 361.7265839631415L1363.5004762167569 361.7265839631415Q1363.5004762167569 365.9500685675155 1360.5648703258244 368.8856744584481Q1357.6292644348914 371.80234095653594 1353.4057798305175 371.80234095653594L1353.4057798305175 371.80234095653594Q1349.1822952261437 371.80234095653594 1346.2466893352112 368.8856744584481Q1343.3110834442782 365.9500685675155 1343.3110834442782 361.7265839631415L1343.3110834442782 361.7265839631415Q1343.3110834442782 357.4841599659227 1346.2466893352112 354.5674934678348Q1349.1822952261437 351.6318875769022 1353.4057798305175 351.6318875769022L1353.4057798305175 351.6318875769022Q1357.6292644348914 351.6318875769022 1360.5648703258244 354.4917358964559Q1363.5004762167569 357.3515842160096 1363.5004762167569 361.7265839631415ZM1372.7618393178282 450.6280939762877L1333.3489628079524 450.6280939762877L1333.3489628079524 444.7568821944225L1344.9398712289249 442.02960962478187L1344.9398712289249 393.4879457637478L1333.3489628079524 393.4879457637478L1333.3489628079524 387.63567337472733L1355.1671433650772 382.44627973527224L1361.1709308968552 382.44627973527224L1361.1709308968552 442.02960962478187L1372.7618393178282 444.7568821944225L1372.7618393178282 450.6280939762877ZM1378.5004753497801 491.537182520897L1378.5004753497801 485.66597073903176L1390.0913837707526 482.93869816939116L1390.0913837707526 393.4879457637478L1378.5004753497801 393.4879457637478L1378.5004753497801 387.63567337472733L1400.318655906905 382.44627973527224L1406.4550191885965 382.44627973527224L1406.4550191885965 388.7152187668767Q1414.7694126474316 380.4008253080418 1426.9095634609012 380.4008253080418L1426.9095634609012 380.4008253080418Q1438.5004718818736 380.4008253080418 1446.73910776933 388.99930965954763Q1454.9966830496305 397.5788546182087 1454.9966830496305 413.94249003605245L1454.9966830496305 413.94249003605245Q1454.9966830496305 432.3515798811266 1443.670926128484 442.52203383874473Q1432.3641086001821 452.67354840351817 1416.2656246821648 452.67354840351817L1416.2656246821648 452.67354840351817Q1410.6785037929703 452.67354840351817 1406.4550191885965 451.57506361852404L1406.4550191885965 451.57506361852404L1406.4550191885965 482.93869816939116L1420.7732001792097 485.66597073903176L1420.7732001792097 491.537182520897L1378.5004753497801 491.537182520897ZM1406.4550191885965 396.2152183333884L1406.4550191885965 443.8099125521861Q1410.5459280430573 445.1735488370065 1415.0345641472577 445.1735488370065L1415.0345641472577 445.1735488370065Q1425.26183628341 445.1735488370065 1431.682290457772 437.2568826279108Q1438.0838052392896 429.3591558116598 1438.0838052392896 414.49173242854954L1438.0838052392896 414.49173242854954Q1438.0838052392896 403.03339975749 1433.1027449211265 397.2379455470037Q1428.1216846029638 391.4424913365173 1420.3565335366256 391.4424913365173L1420.3565335366256 391.4424913365173Q1412.723958220201 391.4424913365173 1406.4550191885965 396.2152183333884L1406.4550191885965 396.2152183333884ZM1466.587591470603 415.72279296345675L1466.587591470603 415.72279296345675Q1466.587591470603 400.7227938304333 1475.1671364292642 390.5523398728152Q1483.76562078077 380.4008253080418 1498.8981956637067 380.4008253080418L1498.8981956637067 380.4008253080418Q1506.8148618728023 380.4008253080418 1512.7428918332016 383.3364311989744Q1518.6709217936009 386.27203708990703 1522.1557700770309 391.4424913365173Q1525.6216789676155 396.6318849759724 1527.269406145107 403.03339975749Q1528.8981939297537 409.4538539318523 1528.8981939297537 416.95385349836397L1528.8981939297537 416.95385349836397L1482.8186511385338 416.95385349836397Q1483.76562078077 428.1280952767526 1490.3186507050455 435.96900391446934Q1496.852741236476 443.8099125521861 1508.1784981576225 443.8099125521861L1508.1784981576225 443.8099125521861Q1515.3944068314636 443.8099125521861 1523.8603154330563 440.66597333996157L1523.8603154330563 440.66597333996157L1526.170921360113 447.0864275143239Q1513.5004675469909 452.67354840351817 1502.0421348759314 452.67354840351817L1502.0421348759314 452.67354840351817Q1485.5459237081745 452.67354840351817 1476.0572878929665 441.8970338748688Q1466.587591470603 431.1205193462194 1466.587591470603 415.72279296345675ZM1482.8186511385338 410.2682478241755L1482.8186511385338 410.2682478241755L1511.9853161194128 408.090217647032Q1511.5875888696733 399.9083999381101 1508.1784981576225 393.9046124063318Q1504.7694074455717 387.9008248745535 1498.5004684139672 387.9008248745535L1498.5004684139672 387.9008248745535Q1491.6822869898656 387.9008248745535 1487.383044814113 394.30233965607107Q1483.0838026383599 400.7227938304333 1482.8186511385338 410.2682478241755ZM1540.6216781006392 449.52960919129356L1540.6216781006392 449.52960919129356L1540.6216781006392 430.04097395406995L1546.9095565250882 430.04097395406995L1552.0800107716987 444.3591549446832Q1556.85273776857 445.1735488370065 1562.723949550435 445.1735488370065L1562.723949550435 445.1735488370065Q1571.4550096518537 445.1735488370065 1575.0534942923518 442.919761088484Q1578.6709183256949 440.66597333996157 1578.6709183256949 435.2114282006803L1578.6709183256949 435.2114282006803Q1578.6709183256949 430.9879435963063 1574.712585221147 428.2038528481315Q1570.7731915094437 425.40082270711196 1561.076222372944 421.5750653524772L1561.076222372944 421.5750653524772Q1551.9474350217856 417.7682473906872 1546.9095565250882 412.522035572698Q1541.8527386355463 407.25688436186397 1541.8527386355463 399.22658179569993L1541.8527386355463 399.22658179569993Q1541.8527386355463 390.078855051697 1549.5610715233502 385.24930987629176Q1557.2694044111536 380.4008253080418 1569.6747067244496 380.4008253080418L1569.6747067244496 380.4008253080418Q1580.451221253099 380.4008253080418 1589.1822813545177 382.99552212776933L1589.1822813545177 382.99552212776933L1589.1822813545177 401.5371877227566L1583.4436453225658 401.5371877227566L1578.9550092183658 388.7152187668767Q1574.9966761138176 387.63567337472733 1569.6747067244496 387.63567337472733L1569.6747067244496 387.63567337472733Q1562.307282907851 387.63567337472733 1559.3716770169185 389.870521730405Q1556.4550105188305 392.1243094789275 1556.4550105188305 396.6318849759724L1556.4550105188305 396.6318849759724Q1556.4550105188305 399.22658179569993 1558.3489498033032 401.2720362229304Q1560.2618284806208 403.31749065016083 1562.6481919790563 404.6053693636023Q1565.0345554774917 405.89324807704367 1570.3565248668597 408.222793396945L1570.3565248668597 408.222793396945Q1582.7618271801557 413.39324764355536 1588.1595541409024 418.65839885438936Q1593.538341708805 423.90461067237857 1593.538341708805 432.2190041312135L1593.538341708805 432.2190041312135Q1593.538341708805 442.1811247675397 1585.4890997497964 447.4273365855289Q1577.4398577907873 452.67354840351817 1564.4853130849947 452.67354840351817L1564.4853130849947 452.67354840351817Q1551.6822835219596 452.67354840351817 1540.6216781006392 449.52960919129356Z " fill="#0d6efd" transform="matrix(0.5490924781122658,0,0,0.5490924781122658,0,71.28253016594593)"/></g></svg>